<?xml version="1.0" encoding="UTF-8"?>
<svg version="1.1" xmlns="http://www.w3.org/2000/svg" width="512" height="512">
<path d="M0 0 C1.53450793 -0.00417831 3.06901277 -0.00965854 4.60351193 -0.01631981 C8.79919869 -0.03072805 12.99468824 -0.02654422 17.19038558 -0.019153 C21.72356094 -0.01441214 26.2566942 -0.02693929 30.78985596 -0.03717041 C39.66259329 -0.05434584 48.53525976 -0.05520101 57.4080094 -0.04995751 C64.62163438 -0.04591219 71.83523847 -0.04736366 79.04886246 -0.05270576 C80.59028467 -0.0538284 80.59028467 -0.0538284 82.16284672 -0.05497371 C84.25060661 -0.05650523 86.3383665 -0.05804357 88.42612638 -0.05958868 C107.99442155 -0.07330921 127.56267671 -0.06787919 147.13097097 -0.05640347 C165.02161346 -0.04647183 182.91215252 -0.05941136 200.80277906 -0.08333766 C219.18620609 -0.10773721 237.56958495 -0.1173344 255.95302784 -0.11068493 C266.26860062 -0.10719459 276.58409387 -0.10941261 286.89965439 -0.12693596 C295.68112349 -0.14166863 304.46245705 -0.14227942 313.24392353 -0.12486505 C317.72140371 -0.11636144 322.19864185 -0.11418984 326.67610931 -0.1295166 C330.78073443 -0.14339277 334.88491084 -0.13856322 338.98951019 -0.11927737 C340.46855234 -0.11552599 341.94763068 -0.11841431 343.4266405 -0.12888902 C359.32709185 -0.23342725 370.82535548 3.86332431 382.50564575 14.70018005 C394.36118979 27.22679262 395.22487493 40.9963897 395.1892395 57.31736755 C395.1938094 59.15763032 395.19911736 60.99789139 395.2051239 62.83815002 C395.21402354 66.68269309 395.21166831 70.52702808 395.20169067 74.37156677 C395.19021117 79.26915188 395.21041304 84.16601484 395.23960781 89.06350517 C395.25806085 92.86079887 395.25765921 96.65792245 395.25197029 100.45524979 C395.25181816 102.25954831 395.25777221 104.06385917 395.27026176 105.86811447 C395.37148839 122.88724914 392.34240931 135.31229457 380.44314575 148.13768005 C369.07701437 158.89491154 356.63336438 160.84264854 341.5112915 160.77536011 C339.97678357 160.77953841 338.44227874 160.78501865 336.90777957 160.79167992 C332.71209282 160.80608815 328.51660327 160.80190433 324.32090592 160.79451311 C319.78773056 160.78977225 315.2545973 160.8022994 310.72143555 160.81253052 C301.84869822 160.82970595 292.97603174 160.83056112 284.10328211 160.82531761 C276.88965712 160.8212723 269.67605304 160.82272377 262.46242905 160.82806587 C260.92100684 160.82918851 260.92100684 160.82918851 259.34844478 160.83033382 C257.26068489 160.83186533 255.17292501 160.83340368 253.08516513 160.83494879 C233.51686996 160.84866932 213.94861479 160.8432393 194.38032053 160.83176357 C176.48967804 160.82183194 158.59913898 160.83477147 140.70851244 160.85869776 C122.32508542 160.88309732 103.94170655 160.89269451 85.55826366 160.88604504 C75.24269088 160.88255469 64.92719763 160.88477271 54.61163712 160.90229607 C45.83016801 160.91702874 37.04883445 160.91763953 28.26736797 160.90022516 C23.7898878 160.89172154 19.31264965 160.88954995 14.83518219 160.90487671 C10.73055707 160.91875288 6.62638066 160.91392333 2.52178131 160.89463747 C1.04273916 160.8908861 -0.43633918 160.89377442 -1.91534899 160.90424912 C-17.81580035 161.00878735 -29.31406398 156.9120358 -40.99435425 146.07518005 C-52.84989829 133.54856748 -53.71358342 119.7789704 -53.677948 103.45799255 C-53.6825179 101.61772979 -53.68782586 99.77746872 -53.6938324 97.93721008 C-53.70273204 94.09266702 -53.7003768 90.24833203 -53.69039917 86.40379333 C-53.67891966 81.50620823 -53.69912153 76.60934527 -53.72831631 71.71185493 C-53.74676935 67.91456124 -53.74636771 64.11743766 -53.74067879 60.32011032 C-53.74052665 58.5158118 -53.7464807 56.71150094 -53.75897026 54.90724564 C-53.86019688 37.88811096 -50.83111781 25.46306554 -38.93185425 12.63768005 C-27.56572286 1.88044856 -15.12207287 -0.06728843 0 0 Z M-17.18185425 38.13768005 C-22.10134098 45.88959854 -21.55547306 53.83223069 -21.5451355 62.75486755 C-21.54902956 64.15819931 -21.55336567 65.5615299 -21.55812073 66.96485901 C-21.56555647 69.89831878 -21.56531121 72.83165814 -21.56002808 75.76512146 C-21.55424004 79.50277097 -21.57116076 83.23992387 -21.59437275 86.97749138 C-21.60918868 89.87392502 -21.60997113 92.77024125 -21.60686302 95.66670609 C-21.6073724 97.04365649 -21.61253718 98.42061414 -21.62267494 99.79752731 C-21.92719499 112.07208028 -21.92719499 112.07208028 -16.96940613 122.96308899 C-9.70767995 129.66870557 -0.30426665 128.67548497 8.90014648 128.64837646 C10.35170536 128.65139881 11.80326265 128.65528872 13.25481713 128.65996903 C17.23500768 128.67024703 21.21510813 128.66806772 25.19530606 128.66378844 C29.49124704 128.66132086 33.78716634 128.67033578 38.08309937 128.67782593 C46.49601846 128.69057408 54.90890564 128.69236647 63.32183276 128.69002566 C70.16036084 128.68824247 76.99887924 128.68999219 83.83740616 128.69425011 C84.81078638 128.6948453 85.7841666 128.69544048 86.78704319 128.69605371 C88.76448487 128.69726546 90.74192655 128.6984796 92.71936823 128.69969609 C111.26318516 128.71057209 129.80698389 128.70840885 148.35080184 128.70231124 C165.31246508 128.69714211 182.27407089 128.70839733 199.23572277 128.72740946 C216.65513443 128.74678489 234.07451892 128.75504437 251.49394143 128.75128621 C261.27233592 128.74937371 271.05068153 128.7518665 280.82906723 128.76600075 C289.1535682 128.77791175 297.4779902 128.77932258 305.80249225 128.76721058 C310.04866593 128.76131992 314.29469514 128.76022763 318.54085922 128.77221298 C322.43073238 128.78306495 326.32034032 128.77997669 330.21020104 128.7659513 C331.61458396 128.76330247 333.01898762 128.76567677 334.4233502 128.77368716 C346.56450125 129.04183147 346.56450125 129.04183147 357.3319701 124.11277467 C364.0680379 116.81295462 363.06714946 107.27534375 363.056427 98.02049255 C363.06032106 96.6171608 363.06465718 95.2138302 363.06941223 93.8105011 C363.07684797 90.87704133 363.07660271 87.94370196 363.07131958 85.01023865 C363.06553154 81.27258913 363.08245226 77.53543624 363.10566425 73.79786873 C363.12048018 70.90143509 363.12126264 68.00511885 363.11815453 65.10865402 C363.1186639 63.73170362 363.12382868 62.35474597 363.13396645 60.97783279 C363.43848649 48.70327983 363.43848649 48.70327983 358.48069763 37.81227112 C351.21897145 31.10665454 341.81555816 32.09987513 332.61114502 32.12698364 C331.15958614 32.12396129 329.70802885 32.12007139 328.25647438 32.11539108 C324.27628383 32.10511308 320.29618337 32.10729239 316.31598544 32.11157167 C312.02004447 32.11403925 307.72412517 32.10502432 303.42819214 32.09753418 C295.01527305 32.08478603 286.60238587 32.08299364 278.18945874 32.08533444 C271.35093066 32.08711764 264.51241227 32.08536792 257.67388535 32.08111 C256.70050512 32.08051481 255.7271249 32.07991962 254.72424831 32.0793064 C252.74680663 32.07809464 250.76936495 32.07688051 248.79192327 32.07566402 C230.24810635 32.06478802 211.70430761 32.06695125 193.16048966 32.07304887 C176.19882642 32.078218 159.23722062 32.06696277 142.27556874 32.04795065 C124.85615708 32.02857522 107.43677259 32.02031574 90.01735008 32.0240739 C80.23895559 32.0259864 70.46060998 32.0234936 60.68222427 32.00935936 C52.3577233 31.99744836 44.03330131 31.99603753 35.70879926 32.00814953 C31.46262557 32.01404019 27.21659636 32.01513248 22.97043228 32.00314713 C19.08055912 31.99229516 15.19095118 31.99538342 11.30109046 32.00940881 C9.89670754 32.01205764 8.49230388 32.00968333 7.0879413 32.00167295 C-6.17014616 31.70443561 -6.17014616 31.70443561 -17.18185425 38.13768005 Z " fill="#00abed" transform="translate(85.24435424804688,271.61231994628906)"/>
<path d="M0 0 C1.53450793 -0.00417831 3.06901277 -0.00965854 4.60351193 -0.01631981 C8.79919869 -0.03072805 12.99468824 -0.02654422 17.19038558 -0.019153 C21.72356094 -0.01441214 26.2566942 -0.02693929 30.78985596 -0.03717041 C39.66259329 -0.05434584 48.53525976 -0.05520101 57.4080094 -0.04995751 C64.62163438 -0.04591219 71.83523847 -0.04736366 79.04886246 -0.05270576 C80.59028467 -0.0538284 80.59028467 -0.0538284 82.16284672 -0.05497371 C84.25060661 -0.05650523 86.3383665 -0.05804357 88.42612638 -0.05958868 C107.99442155 -0.07330921 127.56267671 -0.06787919 147.13097097 -0.05640347 C165.02161346 -0.04647183 182.91215252 -0.05941136 200.80277906 -0.08333766 C219.18620609 -0.10773721 237.56958495 -0.1173344 255.95302784 -0.11068493 C266.26860062 -0.10719459 276.58409387 -0.10941261 286.89965439 -0.12693596 C295.68112349 -0.14166863 304.46245705 -0.14227942 313.24392353 -0.12486505 C317.72140371 -0.11636144 322.19864185 -0.11418984 326.67610931 -0.1295166 C330.78073443 -0.14339277 334.88491084 -0.13856322 338.98951019 -0.11927737 C340.46855234 -0.11552599 341.94763068 -0.11841431 343.4266405 -0.12888902 C359.32709185 -0.23342725 370.82535548 3.86332431 382.50564575 14.70018005 C394.36118979 27.22679262 395.22487493 40.9963897 395.1892395 57.31736755 C395.1938094 59.15763032 395.19911736 60.99789139 395.2051239 62.83815002 C395.21402354 66.68269309 395.21166831 70.52702808 395.20169067 74.37156677 C395.19021117 79.26915188 395.21041304 84.16601484 395.23960781 89.06350517 C395.25806085 92.86079887 395.25765921 96.65792245 395.25197029 100.45524979 C395.25181816 102.25954831 395.25777221 104.06385917 395.27026176 105.86811447 C395.37148839 122.88724914 392.34240931 135.31229457 380.44314575 148.13768005 C369.07701437 158.89491154 356.63336438 160.84264854 341.5112915 160.77536011 C339.97678357 160.77953841 338.44227874 160.78501865 336.90777957 160.79167992 C332.71209282 160.80608815 328.51660327 160.80190433 324.32090592 160.79451311 C319.78773056 160.78977225 315.2545973 160.8022994 310.72143555 160.81253052 C301.84869822 160.82970595 292.97603174 160.83056112 284.10328211 160.82531761 C276.88965712 160.8212723 269.67605304 160.82272377 262.46242905 160.82806587 C260.92100684 160.82918851 260.92100684 160.82918851 259.34844478 160.83033382 C257.26068489 160.83186533 255.17292501 160.83340368 253.08516513 160.83494879 C233.51686996 160.84866932 213.94861479 160.8432393 194.38032053 160.83176357 C176.48967804 160.82183194 158.59913898 160.83477147 140.70851244 160.85869776 C122.32508542 160.88309732 103.94170655 160.89269451 85.55826366 160.88604504 C75.24269088 160.88255469 64.92719763 160.88477271 54.61163712 160.90229607 C45.83016801 160.91702874 37.04883445 160.91763953 28.26736797 160.90022516 C23.7898878 160.89172154 19.31264965 160.88954995 14.83518219 160.90487671 C10.73055707 160.91875288 6.62638066 160.91392333 2.52178131 160.89463747 C1.04273916 160.8908861 -0.43633918 160.89377442 -1.91534899 160.90424912 C-17.81580035 161.00878735 -29.31406398 156.9120358 -40.99435425 146.07518005 C-52.84989829 133.54856748 -53.71358342 119.7789704 -53.677948 103.45799255 C-53.6825179 101.61772979 -53.68782586 99.77746872 -53.6938324 97.93721008 C-53.70273204 94.09266702 -53.7003768 90.24833203 -53.69039917 86.40379333 C-53.67891966 81.50620823 -53.69912153 76.60934527 -53.72831631 71.71185493 C-53.74676935 67.91456124 -53.74636771 64.11743766 -53.74067879 60.32011032 C-53.74052665 58.5158118 -53.7464807 56.71150094 -53.75897026 54.90724564 C-53.86019688 37.88811096 -50.83111781 25.46306554 -38.93185425 12.63768005 C-27.56572286 1.88044856 -15.12207287 -0.06728843 0 0 Z M-17.18185425 38.13768005 C-22.10134098 45.88959854 -21.55547306 53.83223069 -21.5451355 62.75486755 C-21.54902956 64.15819931 -21.55336567 65.5615299 -21.55812073 66.96485901 C-21.56555647 69.89831878 -21.56531121 72.83165814 -21.56002808 75.76512146 C-21.55424004 79.50277097 -21.57116076 83.23992387 -21.59437275 86.97749138 C-21.60918868 89.87392502 -21.60997113 92.77024125 -21.60686302 95.66670609 C-21.6073724 97.04365649 -21.61253718 98.42061414 -21.62267494 99.79752731 C-21.92719499 112.07208028 -21.92719499 112.07208028 -16.96940613 122.96308899 C-9.70767995 129.66870557 -0.30426665 128.67548497 8.90014648 128.64837646 C10.35170536 128.65139881 11.80326265 128.65528872 13.25481713 128.65996903 C17.23500768 128.67024703 21.21510813 128.66806772 25.19530606 128.66378844 C29.49124704 128.66132086 33.78716634 128.67033578 38.08309937 128.67782593 C46.49601846 128.69057408 54.90890564 128.69236647 63.32183276 128.69002566 C70.16036084 128.68824247 76.99887924 128.68999219 83.83740616 128.69425011 C84.81078638 128.6948453 85.7841666 128.69544048 86.78704319 128.69605371 C88.76448487 128.69726546 90.74192655 128.6984796 92.71936823 128.69969609 C111.26318516 128.71057209 129.80698389 128.70840885 148.35080184 128.70231124 C165.31246508 128.69714211 182.27407089 128.70839733 199.23572277 128.72740946 C216.65513443 128.74678489 234.07451892 128.75504437 251.49394143 128.75128621 C261.27233592 128.74937371 271.05068153 128.7518665 280.82906723 128.76600075 C289.1535682 128.77791175 297.4779902 128.77932258 305.80249225 128.76721058 C310.04866593 128.76131992 314.29469514 128.76022763 318.54085922 128.77221298 C322.43073238 128.78306495 326.32034032 128.77997669 330.21020104 128.7659513 C331.61458396 128.76330247 333.01898762 128.76567677 334.4233502 128.77368716 C346.56450125 129.04183147 346.56450125 129.04183147 357.3319701 124.11277467 C364.0680379 116.81295462 363.06714946 107.27534375 363.056427 98.02049255 C363.06032106 96.6171608 363.06465718 95.2138302 363.06941223 93.8105011 C363.07684797 90.87704133 363.07660271 87.94370196 363.07131958 85.01023865 C363.06553154 81.27258913 363.08245226 77.53543624 363.10566425 73.79786873 C363.12048018 70.90143509 363.12126264 68.00511885 363.11815453 65.10865402 C363.1186639 63.73170362 363.12382868 62.35474597 363.13396645 60.97783279 C363.43848649 48.70327983 363.43848649 48.70327983 358.48069763 37.81227112 C351.21897145 31.10665454 341.81555816 32.09987513 332.61114502 32.12698364 C331.15958614 32.12396129 329.70802885 32.12007139 328.25647438 32.11539108 C324.27628383 32.10511308 320.29618337 32.10729239 316.31598544 32.11157167 C312.02004447 32.11403925 307.72412517 32.10502432 303.42819214 32.09753418 C295.01527305 32.08478603 286.60238587 32.08299364 278.18945874 32.08533444 C271.35093066 32.08711764 264.51241227 32.08536792 257.67388535 32.08111 C256.70050512 32.08051481 255.7271249 32.07991962 254.72424831 32.0793064 C252.74680663 32.07809464 250.76936495 32.07688051 248.79192327 32.07566402 C230.24810635 32.06478802 211.70430761 32.06695125 193.16048966 32.07304887 C176.19882642 32.078218 159.23722062 32.06696277 142.27556874 32.04795065 C124.85615708 32.02857522 107.43677259 32.02031574 90.01735008 32.0240739 C80.23895559 32.0259864 70.46060998 32.0234936 60.68222427 32.00935936 C52.3577233 31.99744836 44.03330131 31.99603753 35.70879926 32.00814953 C31.46262557 32.01404019 27.21659636 32.01513248 22.97043228 32.00314713 C19.08055912 31.99229516 15.19095118 31.99538342 11.30109046 32.00940881 C9.89670754 32.01205764 8.49230388 32.00968333 7.0879413 32.00167295 C-6.17014616 31.70443561 -6.17014616 31.70443561 -17.18185425 38.13768005 Z " fill="#00abed" transform="translate(85.24435424804688,79.61231994628906)"/>
<path d="M0 0 C0.95390625 -0.0038269 1.9078125 -0.00765381 2.890625 -0.01159668 C4.90105245 -0.01431036 6.91151553 -0.00698737 8.921875 0.00976562 C11.99038787 0.03118291 15.05655952 0.00994534 18.125 -0.015625 C20.08333848 -0.01298163 22.0416755 -0.00785645 24 0 C25.36898437 -0.01214539 25.36898437 -0.01214539 26.765625 -0.02453613 C32.34723968 0.05719316 35.57473138 0.80813314 40 4.53125 C43.62833663 8.35055172 44.31000458 11.41404006 44.5 16.53125 C44.31000458 21.64845994 43.62833663 24.71194828 40 28.53125 C34.73573631 32.96023965 30.57725694 33.12085225 24 33.0625 C22.56914062 33.06824036 22.56914062 33.06824036 21.109375 33.07409668 C19.09894755 33.07681036 17.08848447 33.06948737 15.078125 33.05273438 C12.00961213 33.03131709 8.94344048 33.05255466 5.875 33.078125 C3.91666152 33.07548163 1.9583245 33.07035645 0 33.0625 C-1.36898437 33.07464539 -1.36898437 33.07464539 -2.765625 33.08703613 C-8.34723968 33.00530684 -11.57473138 32.25436686 -16 28.53125 C-19.62833663 24.71194828 -20.31000458 21.64845994 -20.5 16.53125 C-20.31000458 11.41404006 -19.62833663 8.35055172 -16 4.53125 C-10.73573631 0.10226035 -6.57725694 -0.05835225 0 0 Z " fill="#00abed" transform="translate(116,335.46875)"/>
<path d="M0 0 C0.95390625 -0.0038269 1.9078125 -0.00765381 2.890625 -0.01159668 C4.90105245 -0.01431036 6.91151553 -0.00698737 8.921875 0.00976562 C11.99038787 0.03118291 15.05655952 0.00994534 18.125 -0.015625 C20.08333848 -0.01298163 22.0416755 -0.00785645 24 0 C25.36898437 -0.01214539 25.36898437 -0.01214539 26.765625 -0.02453613 C32.34723968 0.05719316 35.57473138 0.80813314 40 4.53125 C43.62833663 8.35055172 44.31000458 11.41404006 44.5 16.53125 C44.31000458 21.64845994 43.62833663 24.71194828 40 28.53125 C34.73573631 32.96023965 30.57725694 33.12085225 24 33.0625 C22.56914062 33.06824036 22.56914062 33.06824036 21.109375 33.07409668 C19.09894755 33.07681036 17.08848447 33.06948737 15.078125 33.05273438 C12.00961213 33.03131709 8.94344048 33.05255466 5.875 33.078125 C3.91666152 33.07548163 1.9583245 33.07035645 0 33.0625 C-1.36898437 33.07464539 -1.36898437 33.07464539 -2.765625 33.08703613 C-8.34723968 33.00530684 -11.57473138 32.25436686 -16 28.53125 C-19.62833663 24.71194828 -20.31000458 21.64845994 -20.5 16.53125 C-20.31000458 11.41404006 -19.62833663 8.35055172 -16 4.53125 C-10.73573631 0.10226035 -6.57725694 -0.05835225 0 0 Z " fill="#00abed" transform="translate(116,143.46875)"/>
</svg>
