<?xml version="1.0" encoding="UTF-8"?>
<svg version="1.1" xmlns="http://www.w3.org/2000/svg" width="512" height="512">
<path d="M0 0 C0.94488785 -0.00705963 1.8897757 -0.01411926 2.86329651 -0.02139282 C41.91562467 -0.247035 41.91562467 -0.247035 58.76953125 3.203125 C59.7661377 3.39648438 60.76274414 3.58984375 61.78955078 3.7890625 C110.19101182 13.35276024 154.38512896 35.77050265 189.76953125 70.203125 C190.77330811 71.16822998 190.77330811 71.16822998 191.79736328 72.15283203 C200.73444332 80.76720099 209.13659789 89.47627109 216.49560547 99.48486328 C217.79203791 101.23348182 219.12241843 102.95141303 220.4609375 104.66796875 C228.32520366 114.8826848 234.71064045 125.84037758 240.76953125 137.203125 C241.43299561 138.44376709 241.43299561 138.44376709 242.10986328 139.70947266 C253.62657967 161.61261762 261.29758965 185.90372389 265.76953125 210.203125 C265.9303418 211.00379395 266.09115234 211.80446289 266.25683594 212.62939453 C271.74897535 240.70724953 271.50349817 274.19290435 265.76953125 302.203125 C265.57617188 303.19973145 265.3828125 304.19633789 265.18359375 305.22314453 C257.06481252 346.31194555 239.6953801 383.40611994 213.76953125 416.203125 C212.95742188 417.24082031 212.1453125 418.27851563 211.30859375 419.34765625 C198.63941514 434.91435994 184.08154161 449.48099025 167.76953125 461.203125 C166.59964669 462.0668777 165.43038875 462.93147969 164.26171875 463.796875 C143.63570695 478.94020242 121.02655998 491.0223415 96.76953125 499.203125 C95.5470166 499.61618896 95.5470166 499.61618896 94.29980469 500.03759766 C84.52895448 503.27568006 74.64734388 505.80797973 64.58203125 507.953125 C63.65737061 508.15188232 62.73270996 508.35063965 61.7800293 508.55541992 C45.57341948 511.84811527 29.63916105 512.57842778 13.14453125 512.515625 C11.61717346 512.51239227 11.61717346 512.51239227 10.05895996 512.50909424 C-4.56294299 512.45939896 -18.86180807 512.15373742 -33.23046875 509.203125 C-34.24302734 509.00444824 -35.25558594 508.80577148 -36.29882812 508.60107422 C-77.39146924 500.38377705 -114.32683292 482.94295303 -147.23046875 457.203125 C-147.76961914 456.78401855 -148.30876953 456.36491211 -148.86425781 455.93310547 C-165.1043318 443.17008625 -180.17509218 427.97886011 -192.23046875 411.203125 C-193.09422145 410.03324044 -193.95882344 408.8639825 -194.82421875 407.6953125 C-209.96754617 387.0693007 -222.04968525 364.46015373 -230.23046875 340.203125 C-230.64353271 338.98061035 -230.64353271 338.98061035 -231.06494141 337.73339844 C-234.30302381 327.96254823 -236.83532348 318.08093763 -238.98046875 308.015625 C-239.17922607 307.09096436 -239.3779834 306.16630371 -239.58276367 305.21362305 C-242.87545902 289.00701323 -243.60577153 273.0727548 -243.54296875 256.578125 C-243.5408136 255.55988647 -243.53865845 254.54164795 -243.53643799 253.49255371 C-243.48673484 238.8683366 -243.17254863 224.57507862 -240.23046875 210.203125 C-239.94042969 208.70821533 -239.94042969 208.70821533 -239.64453125 207.18310547 C-232.01587656 168.57481372 -216.30304558 132.42145621 -192.23046875 101.203125 C-191.26560547 99.95015625 -191.26560547 99.95015625 -190.28125 98.671875 C-176.19691174 80.74132256 -159.85363505 63.45372011 -141.23046875 50.203125 C-140.61284668 49.75710937 -139.99522461 49.31109375 -139.35888672 48.8515625 C-99.20602152 19.97940435 -49.95191371 0.24935871 0 0 Z M-147.37280273 97.11108398 C-153.44557214 103.12704047 -159.0306746 109.40896888 -164.23046875 116.203125 C-164.66069336 116.76225586 -165.09091797 117.32138672 -165.53417969 117.89746094 C-172.46486984 126.95310364 -178.59913899 136.29240546 -184.23046875 146.203125 C-184.56643066 146.77933594 -184.90239258 147.35554688 -185.24853516 147.94921875 C-201.69257813 176.23521759 -212.1562021 211.45171274 -212.46875 244.2578125 C-212.47849854 245.10867935 -212.48824707 245.9595462 -212.49829102 246.8361969 C-212.67241006 265.98570004 -212.39819989 284.41922583 -208.23046875 303.203125 C-208.0485498 304.04697754 -207.86663086 304.89083008 -207.67919922 305.76025391 C-196.70113993 355.23510021 -167.60291727 402.3047444 -127.23046875 433.203125 C-126.67133789 433.63334961 -126.11220703 434.06357422 -125.53613281 434.50683594 C-116.48049011 441.43752609 -107.14118829 447.57179524 -97.23046875 453.203125 C-96.65425781 453.53908691 -96.07804687 453.87504883 -95.484375 454.22119141 C-46.88005432 482.47727466 14.27906347 488.8433033 68.35717773 475.18481445 C115.62554876 462.49210699 159.81653706 435.34031252 189.76953125 396.203125 C190.19975586 395.64399414 190.62998047 395.08486328 191.07324219 394.50878906 C198.00232603 385.45524517 204.15151324 376.11958004 209.76953125 366.203125 C210.11081055 365.61096191 210.45208984 365.01879883 210.80371094 364.40869141 C222.01028442 344.86421277 229.29925729 323.36687192 234.01953125 301.390625 C234.17067383 300.68736084 234.32181641 299.98409668 234.47753906 299.25952148 C237.34027618 285.10900543 238.17654258 271.28149704 238.14453125 256.890625 C238.14398743 255.9682605 238.1434436 255.045896 238.1428833 254.09558105 C237.97846598 193.25590998 212.81957409 137.4055882 170.20703125 94.390625 C164.69714782 88.93271394 158.93199675 83.91946526 152.76953125 79.203125 C152.21040039 78.77290039 151.65126953 78.34267578 151.07519531 77.89941406 C142.02165142 70.97033022 132.68598629 64.82114301 122.76953125 59.203125 C122.17736816 58.8618457 121.58520508 58.52056641 120.97509766 58.16894531 C98.69744555 45.3952024 74.00351744 37.49561598 48.76953125 33.203125 C47.50882812 32.98785156 46.248125 32.77257813 44.94921875 32.55078125 C-25.93665868 21.87895135 -96.50605262 47.64937142 -147.37280273 97.11108398 Z " fill="#a1a1a5" transform="translate(243.23046875,-0.203125)"/>
<path d="M0 0 C3.84960354 2.8752622 5.78140249 6.55529689 7.13671875 11.05078125 C7.53621896 14.00607091 7.54259766 16.91489501 7.51766968 19.89379883 C7.52234965 20.76055394 7.52702962 21.62730906 7.53185141 22.52032948 C7.54377614 25.41214813 7.53435403 28.30349068 7.52490234 31.1953125 C7.52896916 33.27363358 7.53431166 35.3519525 7.54083252 37.43026733 C7.55449875 43.06656072 7.54921025 48.7026892 7.53969526 54.33898544 C7.53209513 60.24007356 7.53914527 66.14114765 7.54385376 72.04223633 C7.54931027 81.95168592 7.54212241 91.86106841 7.52783203 101.77050781 C7.51150576 113.223904 7.51679434 124.67713996 7.53331125 136.13053226 C7.54692906 145.967658 7.54884431 155.80473552 7.54099524 165.64186764 C7.53632037 171.51563582 7.53568883 177.38932871 7.54560471 183.26309204 C7.55427632 188.78546263 7.5482487 194.30762682 7.53092194 199.82997513 C7.52695817 201.85563438 7.52808925 203.88131103 7.53470993 205.90696335 C7.54291973 208.67413059 7.53261054 211.44063833 7.51766968 214.20776367 C7.52436184 215.00747998 7.53105401 215.80719629 7.53794897 216.63114643 C7.46899353 223.22503479 6.07001086 227.88172181 1.57421875 232.92578125 C-2.47744873 235.95196465 -6.91507376 236.42495126 -11.86328125 236.05078125 C-16.66356542 234.79317256 -19.11961912 233.13671633 -21.94335175 229.01335144 C-24.33601287 224.7012209 -24.4242931 220.90555537 -24.37121582 216.0559082 C-24.38057576 214.73127422 -24.38057576 214.73127422 -24.3901248 213.37987995 C-24.40602843 210.43266596 -24.39346079 207.48628204 -24.38085938 204.5390625 C-24.38628165 202.42133096 -24.3934049 200.3036032 -24.40209961 198.18588257 C-24.42032316 192.44211439 -24.41326927 186.69863385 -24.40058327 180.95486069 C-24.39045068 174.94166035 -24.39984967 168.92848451 -24.40612793 162.9152832 C-24.41340356 152.81750063 -24.40381877 142.71983511 -24.38476562 132.62207031 C-24.36299714 120.95050711 -24.37004856 109.2792234 -24.39207125 97.60766697 C-24.41022757 87.58369588 -24.4127824 77.5598089 -24.40231657 67.53582668 C-24.39608296 61.55025591 -24.39524249 55.56481647 -24.40846252 49.57925415 C-24.42002367 43.95176749 -24.41199006 38.32464093 -24.3888855 32.69719315 C-24.38359988 30.63283511 -24.38510964 28.56844673 -24.39393616 26.5041008 C-24.40488083 23.68421057 -24.39114082 20.86547136 -24.37121582 18.0456543 C-24.38013871 17.23037419 -24.38906159 16.41509409 -24.39825487 15.57510853 C-24.32137742 9.95884093 -23.04526894 6.69728927 -19.86328125 2.05078125 C-14.35413468 -2.8569301 -6.48903003 -3.30573228 0 0 Z " fill="#a1a1a5" transform="translate(312.86328125,138.94921875)"/>
<path d="M0 0 C3.32054487 2.92524191 5.27138089 5.78914209 5.89970863 10.2727679 C6.01413704 12.58263356 6.02966776 14.87445424 6.01268005 17.18711853 C6.01806559 18.06935343 6.02345113 18.95158833 6.02899987 19.86055762 C6.04328402 22.8107456 6.03617455 25.76048518 6.02905273 28.71069336 C6.03475605 30.82827617 6.04172015 32.9458559 6.04985046 35.06343079 C6.067801 40.81134036 6.06660991 46.55909743 6.06090808 52.30702662 C6.05781905 57.10584793 6.06390549 61.90463982 6.06994683 66.70345694 C6.08399661 78.02425331 6.0824269 89.34497423 6.07104492 100.66577148 C6.05956236 112.3446895 6.07364079 124.02337792 6.1004414 135.70226568 C6.12259234 145.73045499 6.12923715 155.75857219 6.12336498 165.78678423 C6.11999289 171.77573269 6.12242746 177.76453395 6.13961601 183.75346184 C6.15507335 189.38502409 6.15114278 195.01624597 6.13231087 200.64779472 C6.1286217 202.71376988 6.13174296 204.77977019 6.14219666 206.8457222 C6.15538557 209.66784035 6.14387748 212.48882821 6.12620544 215.31089783 C6.13581045 216.12686005 6.14541546 216.94282227 6.15531152 217.78351063 C6.08299172 223.40335086 4.80974752 226.66354582 1.625 231.3125 C-2.20735904 234.72647924 -6.45595811 235.6256828 -11.5 235.375 C-16.56609056 234.58901667 -18.96627237 233.13692613 -22.375 229.3125 C-25.22659826 223.86320005 -25.80693586 219.56220169 -25.75595093 213.46948242 C-25.7606309 212.60272731 -25.76531087 211.73597219 -25.77013266 210.84295177 C-25.78205739 207.95113312 -25.77263528 205.05979057 -25.76318359 202.16796875 C-25.76725041 200.08964767 -25.77259291 198.01132875 -25.77911377 195.93301392 C-25.79278 190.29672053 -25.7874915 184.66059205 -25.77797651 179.02429581 C-25.77037638 173.12320769 -25.77742652 167.2221336 -25.78213501 161.32104492 C-25.78759152 151.41159533 -25.78040366 141.50221284 -25.76611328 131.59277344 C-25.74978701 120.13937725 -25.75507559 108.68614129 -25.7715925 97.23274899 C-25.78521031 87.39562325 -25.78712556 77.55854573 -25.77927649 67.72141361 C-25.77460162 61.84764543 -25.77397008 55.97395254 -25.78388596 50.10018921 C-25.79255757 44.57781862 -25.78652995 39.05565443 -25.76920319 33.53330612 C-25.76523942 31.50764687 -25.7663705 29.48197022 -25.77299118 27.4563179 C-25.78120098 24.68915066 -25.77089179 21.92264292 -25.75595093 19.15551758 C-25.76264309 18.35580127 -25.76933526 17.55608496 -25.77623022 16.73213482 C-25.71607671 10.97993409 -24.73019886 6.11361651 -20.91015625 1.5703125 C-14.1858813 -3.60220669 -7.57790284 -3.78895142 0 0 Z " fill="#a1a1a5" transform="translate(217.375,139.6875)"/>
</svg>
